<svg id="Layer_1" data-name="Layer 1" xmlns="http://www.w3.org/2000/svg" xmlns:xlink="http://www.w3.org/1999/xlink" viewBox="0 0 2630.13 1317.88"><defs><style>.cls-1{mask:url(#mask);}.cls-2{mix-blend-mode:multiply;fill:url(#linear-gradient);}.cls-3{fill:#6f4367;}.cls-24,.cls-26,.cls-28,.cls-29,.cls-30,.cls-33,.cls-38,.cls-4,.cls-6{fill:#fff;}.cls-10,.cls-11,.cls-12,.cls-13,.cls-15,.cls-17,.cls-18,.cls-19,.cls-20,.cls-21,.cls-22,.cls-23,.cls-24,.cls-25,.cls-26,.cls-27,.cls-28,.cls-35,.cls-4,.cls-7,.cls-8{stroke:#253657;}.cls-13,.cls-15,.cls-17,.cls-18,.cls-20,.cls-21,.cls-23,.cls-24,.cls-25,.cls-26,.cls-27,.cls-28,.cls-29,.cls-30,.cls-31,.cls-32,.cls-38,.cls-4,.cls-7{stroke-linecap:round;stroke-linejoin:round;}.cls-10,.cls-15,.cls-35,.cls-4,.cls-7,.cls-8{stroke-width:9.17px;}.cls-23,.cls-25,.cls-27,.cls-5{fill:#a69aca;}.cls-10,.cls-37,.cls-7{fill:#f8e9e5;}.cls-8{fill:#253657;}.cls-10,.cls-11,.cls-12,.cls-19,.cls-22,.cls-33,.cls-35,.cls-8{stroke-miterlimit:10;}.cls-9{fill:#f5a1a1;}.cls-11,.cls-12,.cls-13,.cls-15,.cls-17,.cls-18,.cls-19,.cls-20,.cls-21,.cls-32{fill:none;}.cls-11{stroke-width:4.58px;}.cls-12,.cls-17{stroke-width:7.64px;}.cls-13{stroke-width:7.64px;}.cls-14{fill:#839eb7;}.cls-16{fill:#e76d8a;}.cls-18,.cls-19{stroke-width:7.39px;}.cls-20{stroke-width:9.17px;}.cls-21{stroke-width:7.68px;}.cls-22,.cls-34,.cls-35{fill:#f98f8f;}.cls-22{stroke-width:10.41px;}.cls-23,.cls-24{stroke-width:6.93px;}.cls-25,.cls-26{stroke-width:6.48px;}.cls-27,.cls-28{stroke-width:6.67px;}.cls-29,.cls-30,.cls-31,.cls-32,.cls-33,.cls-38{stroke:#fff;}.cls-29{stroke-width:7.2px;}.cls-30{stroke-width:7.02px;}.cls-31{fill:#020202;}.cls-31,.cls-32{stroke-width:9.56px;}.cls-36{mask:url(#mask-2);}.cls-37{opacity:0.61;}.cls-38{stroke-width:7.01px;}.cls-39{filter:url(#luminosity-noclip-2);}.cls-40{filter:url(#luminosity-noclip);}</style><filter id="luminosity-noclip" x="1030.43" y="-9192" width="1212.18" height="32766" filterUnits="userSpaceOnUse" color-interpolation-filters="sRGB"><feFlood flood-color="#fff" result="bg"/><feBlend in="SourceGraphic" in2="bg"/></filter><mask id="mask" x="1030.43" y="-9192" width="1212.18" height="32766" maskUnits="userSpaceOnUse"><g class="cls-40"/></mask><linearGradient id="linear-gradient" x1="2024.23" y1="922.09" x2="1594.33" y2="1571.6" gradientUnits="userSpaceOnUse"><stop offset="0" stop-color="#fff"/><stop offset="0.09" stop-color="#f5f5f5"/><stop offset="0.23" stop-color="#dadada"/><stop offset="0.42" stop-color="#aeaeae"/><stop offset="0.64" stop-color="#717171"/><stop offset="0.89" stop-color="#242424"/><stop offset="1"/></linearGradient><filter id="luminosity-noclip-2" x="1030.43" y="841.63" width="1212.18" height="666.22" filterUnits="userSpaceOnUse" color-interpolation-filters="sRGB"><feFlood flood-color="#fff" result="bg"/><feBlend in="SourceGraphic" in2="bg"/></filter><mask id="mask-2" x="852.42" y="568.62" width="1212.18" height="666.22" maskUnits="userSpaceOnUse"><g class="cls-39"><g transform="translate(-178.02 -273.01)"><g class="cls-1"><polygon class="cls-2" points="1945.77 841.63 1030.43 1507.86 2242.61 1507.86 2073.47 923.76 1945.77 841.63"/></g></g></g></mask></defs><path class="cls-3" d="M405,1511.4s-131.68-181.6-21.47-484.65S758.24,781.18,953.79,563.91c223.16-248,828-261.73,1090.35,13.77s746,321.74,556.53,965.33Z" transform="translate(-178.02 -273.01)"/><path class="cls-4" d="M1690.22,1174h82.52a31.69,31.69,0,0,1,31.69,31.69v16.73a0,0,0,0,1,0,0h-145.9a0,0,0,0,1,0,0v-16.73A31.69,31.69,0,0,1,1690.22,1174Z"/><path class="cls-5" d="M2611.05,1249.11s45.31-188.66,87.85-236.74,82.31,12,49.94,45.31-106,147-113.1,200.68S2611.05,1249.11,2611.05,1249.11Z" transform="translate(-178.02 -273.01)"/><path class="cls-5" d="M2795.12,1124.52a30.42,30.42,0,0,1-17.55,26.77c-31.52,15.27-113,77-131.83,113.19s-15.13-12.91-15.13-12.91,15.95-24.14,37.4-53l0,0,.07-.09c26.79-36,62.11-79.3,85.71-92.15C2780.55,1091.75,2795.51,1107.22,2795.12,1124.52Z" transform="translate(-178.02 -273.01)"/><path class="cls-5" d="M2570,1251.58s-80.68-122.12-123.21-145.27-55.27,29.7-23.76,45,113,77,131.84,113.2S2570,1251.58,2570,1251.58Z" transform="translate(-178.02 -273.01)"/><path class="cls-5" d="M2592.3,1249.11s-45.31-188.66-87.85-236.74-82.31,12-49.94,45.31,106,147,113.1,200.68S2592.3,1249.11,2592.3,1249.11Z" transform="translate(-178.02 -273.01)"/><path class="cls-5" d="M2591,1248.19S2567.89,1120.57,2567,1017s78.3-87.86,67.82,22-14.59,203.61-26.72,222.1S2591,1248.19,2591,1248.19Z" transform="translate(-178.02 -273.01)"/><path class="cls-6" d="M2795.12,1124.52c-4.43-10.78-28.45-46.93-127,73.93,26.79-36,62.11-79.3,85.71-92.15C2780.55,1091.75,2795.51,1107.22,2795.12,1124.52Z" transform="translate(-178.02 -273.01)"/><path class="cls-7" d="M1021.67,1222.72V654.31c0-14.38,10.67-26,23.82-26h892.15c13.15,0,23.82,11.67,23.82,26v671.32c0,18-13.35,32.6-29.81,32.6H1051.48c-16.46,0-29.81-14.6-29.81-32.6v-73.26" transform="translate(-178.02 -273.01)"/><path class="cls-8" d="M1961.46,654.31v546H1021.67v-546c0-14.38,10.67-26,23.82-26h892.15C1950.79,628.26,1961.46,639.93,1961.46,654.31Z" transform="translate(-178.02 -273.01)"/><rect class="cls-6" x="885.73" y="400.95" width="855.63" height="480.67"/><rect class="cls-9" x="885.73" y="400.95" width="855.63" height="480.67"/><polygon class="cls-10" points="1426.35 1195.09 1186.14 1195.09 1206.74 1085.22 1405.75 1085.22 1426.35 1195.09"/><path class="cls-7" d="M1302.41,1468.1h457.38a12.83,12.83,0,0,1,12.82,12.83v4.15a12.82,12.82,0,0,1-12.82,12.83h-551a12.82,12.82,0,0,1-12.83-12.83v-4.15a12.83,12.83,0,0,1,12.83-12.83h61.42" transform="translate(-178.02 -273.01)"/><path class="cls-11" d="M2791.46,1113.17s-91.26,46.55-141.19,125.62" transform="translate(-178.02 -273.01)"/><path class="cls-6" d="M2423.47,1088.07s-19.7,27,12.4,58.45L2412.52,1133l-8.23-17.19,1.34-15.65,8.77-9.59Z" transform="translate(-178.02 -273.01)"/><path class="cls-11" d="M2551.44,1241.43s-70.58-93.23-144.78-130.64" transform="translate(-178.02 -273.01)"/><path class="cls-6" d="M2474.29,992.84s-27.25,26.1-16.53,46.69c13.61,26.14,48.36,87.53,48.36,87.53l-54-72.6-10-19.93.79-18,6.52-13s5.87-7.1,7-7.17,11.63-3.48,11.63-3.48Z" transform="translate(-178.02 -273.01)"/><path class="cls-11" d="M2451.56,1001.07s79.07,72.39,123.81,240.36" transform="translate(-178.02 -273.01)"/><path class="cls-6" d="M2609.82,948.94s-31.33,14.43-31.33,68.78c0,45.79,15.6,226.79,15.6,226.79l-10.24-34.58-14.75-136-3.36-81.09,13.5-36.12S2592.14,938.79,2609.82,948.94Z" transform="translate(-178.02 -273.01)"/><path class="cls-11" d="M2600.13,945.42s-1.25,285.65,0,296" transform="translate(-178.02 -273.01)"/><path class="cls-6" d="M2750.92,1009.4s-50.47-30.45-117.43,151.48l49.34-130.34s23.52-31.45,33.32-34.75S2748.84,991.46,2750.92,1009.4Z" transform="translate(-178.02 -273.01)"/><path class="cls-11" d="M2749.34,1001.07S2655,1113,2624.78,1241.43" transform="translate(-178.02 -273.01)"/><path class="cls-12" d="M2612.08,1249.11s45.31-188.66,87.85-236.74,82.31,12,49.94,45.31-106,147-113.1,200.68S2612.08,1249.11,2612.08,1249.11Z" transform="translate(-178.02 -273.01)"/><path class="cls-13" d="M2754.85,1106.31c42.54-23.15,55.27,29.7,23.75,45s-113,77-131.83,113.2-15.13-12.91-15.13-12.91,65.59-101.66,109.62-135.74" transform="translate(-178.02 -273.01)"/><path class="cls-12" d="M2571.06,1251.58s-80.68-122.12-123.21-145.27-55.27,29.7-23.76,45,113,77,131.84,113.2S2571.06,1251.58,2571.06,1251.58Z" transform="translate(-178.02 -273.01)"/><path class="cls-12" d="M2593.33,1249.11s-45.32-188.66-87.86-236.74-82.3,12-49.93,45.31,106,147,113.1,200.68S2593.33,1249.11,2593.33,1249.11Z" transform="translate(-178.02 -273.01)"/><path class="cls-13" d="M2634.51,992.84c2.33,12.81,3,28.25,1.3,46.19-10.48,109.9-14.59,203.61-26.72,222.1s-17.05-12.94-17.05-12.94S2568.92,1120.57,2568,1017c-.65-73,38.56-86.76,58.05-50" transform="translate(-178.02 -273.01)"/><path class="cls-6" d="M2723.52,1255.32l-16.73,181.07a36.9,36.9,0,0,1-36.73,33.49h-140a36.9,36.9,0,0,1-36.73-33.49l-16.73-181.07a11,11,0,0,1,10.92-12h225.07A11,11,0,0,1,2723.52,1255.32Z" transform="translate(-178.02 -273.01)"/><polygon class="cls-6" points="2510.31 1226.69 2330.26 1226.69 2338.94 1196.87 2502.47 1196.87 2510.31 1226.69"/><path class="cls-14" d="M2723.52,1255.32l-16.73,181.07a36.9,36.9,0,0,1-36.73,33.49H2560.27a36.88,36.88,0,0,1-36.72-33.49l-16.74-181.07a11,11,0,0,1,10.94-12h194.83A11,11,0,0,1,2723.52,1255.32Z" transform="translate(-178.02 -273.01)"/><polygon class="cls-14" points="2510.31 1226.69 2360.49 1226.69 2369.16 1196.87 2502.47 1196.87 2510.31 1226.69"/><path class="cls-15" d="M2714.76,1350.11l-8,86.28a36.9,36.9,0,0,1-36.73,33.49h-140a36.9,36.9,0,0,1-36.73-33.49l-16.73-181.06a11,11,0,0,1,10.93-12h225.07a11,11,0,0,1,10.93,12l-5.86,63.36" transform="translate(-178.02 -273.01)"/><polygon class="cls-15" points="2510.32 1226.7 2330.27 1226.7 2338.94 1196.87 2502.47 1196.87 2510.32 1226.7"/><path class="cls-6" d="M2559.4,1403v43.6a38.6,38.6,0,0,1-38.59,38.6h-46.62a38.6,38.6,0,0,1-38.6-38.6V1403a38.58,38.58,0,0,1,27.11-36.84,14.08,14.08,0,0,0,10-13.42v-5.87a13.5,13.5,0,0,1,13.51-13.49h23.11a13.49,13.49,0,0,1,13,13.48v5.86a14.11,14.11,0,0,0,10,13.43A38.57,38.57,0,0,1,2559.4,1403Z" transform="translate(-178.02 -273.01)"/><rect class="cls-6" x="2270.78" y="1212.23" width="96.9" height="14.47"/><path class="cls-16" d="M2559.4,1403v43.6a38.6,38.6,0,0,1-38.59,38.6h-23a38.6,38.6,0,0,1-38.59-38.6V1403a38.59,38.59,0,0,1,27.1-36.84,14.09,14.09,0,0,0,10-13.42v-5.87a13,13,0,1,1,26.07,0v5.86a14.11,14.11,0,0,0,10,13.43A38.57,38.57,0,0,1,2559.4,1403Z" transform="translate(-178.02 -273.01)"/><rect class="cls-16" x="2294.35" y="1212.23" width="73.33" height="14.47"/><path class="cls-17" d="M2435.6,1443.14v3.51a38.6,38.6,0,0,0,38.59,38.6h46.62a38.6,38.6,0,0,0,38.59-38.6v-43.6a38.6,38.6,0,0,0-27.12-36.85,14.09,14.09,0,0,1-10-13.42v-5.86a13.5,13.5,0,0,0-13.5-13.5h-22.64a13.5,13.5,0,0,0-13.5,13.5v5.86a14.08,14.08,0,0,1-10,13.42,38.61,38.61,0,0,0-27.1,36.85v17.66" transform="translate(-178.02 -273.01)"/><rect class="cls-17" x="2270.78" y="1212.24" width="96.9" height="14.47"/><rect class="cls-6" x="105.01" y="1044.12" width="340.66" height="126.34" rx="24.99"/><path class="cls-16" d="M623.68,1342.12v76.36a25,25,0,0,1-25,25H331.48a25,25,0,0,1-25-25v-76.36a25,25,0,0,1,25-25H598.7A25,25,0,0,1,623.68,1342.12Z" transform="translate(-178.02 -273.01)"/><path class="cls-18" d="M554.22,1317.13h44.64a25,25,0,0,1,25,25v76.36a25,25,0,0,1-25,25H308.17a25,25,0,0,1-25-25v-76.36a25,25,0,0,1,25-25h220" transform="translate(-178.02 -273.01)"/><rect class="cls-6" x="258.45" y="1170.46" width="33.78" height="33.78"/><path class="cls-6" d="M520.29,1486.76v3.46a9.5,9.5,0,0,1-9.5,9.5H396.24a9.51,9.51,0,0,1-9.51-9.5v-3.46a9.51,9.51,0,0,1,9.51-9.52H510.79A9.5,9.5,0,0,1,520.29,1486.76Z" transform="translate(-178.02 -273.01)"/><rect class="cls-16" x="272.28" y="1170.46" width="19.95" height="33.78"/><path class="cls-16" d="M520.29,1486.76v3.46a9.5,9.5,0,0,1-9.5,9.5H410.07a9.5,9.5,0,0,1-9.5-9.5v-3.46a9.5,9.5,0,0,1,9.5-9.52H510.79A9.5,9.5,0,0,1,520.29,1486.76Z" transform="translate(-178.02 -273.01)"/><rect class="cls-19" x="258.29" y="1170.45" width="33.78" height="33.78"/><rect class="cls-19" x="208.56" y="1204.24" width="133.56" height="22.47" rx="7.35"/><path class="cls-9" d="M346,1369.54v-14.67L356.8,1344v28.21l-4.06,4.16Zm10.82,15v28.2L346,1401.9v-14.67l6.76-6.77Z" transform="translate(-178.02 -273.01)"/><path class="cls-9" d="M373.74,1372.24V1344l10.82,10.67v14.78l-6.76,6.93Zm10.82,15v14.69l-10.82,10.81v-28.21l4.06-4.06ZM417.83,1342,407,1352.8H386.64L375.82,1342Zm0,72.78h-42L386.64,1404H407ZM409,1369.52V1354.8l10.81-10.67v28.13l-4.05,4.15Zm10.81,15v28.12L409,1401.82V1387.2l6.76-6.74Z" transform="translate(-178.02 -273.01)"/><path class="cls-9" d="M433.22,1365v-10.81H444V1365Zm0,49.8V1404H444v10.81Z" transform="translate(-178.02 -273.01)"/><path class="cls-9" d="M501.42,1342l-10.81,10.81H470.23L459.42,1342Zm0,72.78h-42L470.23,1404h20.38ZM492,1373l5.41,5.4-5.41,5.41H468.88l-5.41-5.41,5.41-5.4Zm.63-3.46V1354.8l10.81-10.67v28.13l-4.06,4.15Zm10.81,15v28.12l-10.81-10.81V1387.2l6.75-6.74Z" transform="translate(-178.02 -273.01)"/><path class="cls-9" d="M515.56,1372.24V1344l10.82,10.67v14.78l-6.76,6.93Zm10.82,15v14.69l-10.82,10.81v-28.21l4.06-4.06ZM559.65,1342l-10.82,10.81H528.46L517.64,1342Zm0,72.78h-42L528.46,1404h20.37Zm-8.84-45.25V1354.8l10.81-10.67v28.13l-4,4.15Zm10.81,15v28.12l-10.81-10.81V1387.2l6.76-6.74Z" transform="translate(-178.02 -273.01)"/><rect class="cls-6" x="4.58" y="1226.71" width="2608.86" height="86.59" rx="29.28"/><path class="cls-9" d="M2791.46,1529v28a29.28,29.28,0,0,1-29.27,29.27H249.84A29.28,29.28,0,0,1,220.57,1557v-28a29.26,29.26,0,0,1,29.27-29.26H2762.19A29.26,29.26,0,0,1,2791.46,1529Z" transform="translate(-178.02 -273.01)"/><path class="cls-20" d="M2136.53,1586.31H201.76a19.16,19.16,0,0,1-19.16-19.16v-48.27a19.16,19.16,0,0,1,19.16-19.16H2772.3a19.16,19.16,0,0,1,19.16,19.16v48.27a19.16,19.16,0,0,1-19.16,19.16H2205.86" transform="translate(-178.02 -273.01)"/><line class="cls-15" x1="2534.7" y1="1256.34" x2="2613.12" y2="1256.34"/><line class="cls-15" x1="2613.44" y1="1284.02" x2="2356.16" y2="1284.02"/><line class="cls-15" x1="237.87" y1="1284.02" x2="372.83" y2="1284.02"/><line class="cls-15" x1="4.58" y1="1284.02" x2="197.28" y2="1284.02"/><line class="cls-21" x1="2543.43" y1="1004.79" x2="2411.82" y2="1004.79"/><line class="cls-21" x1="2350.96" y1="1004.79" x2="2301.03" y2="1004.79"/><line class="cls-21" x1="2344.84" y1="1083.6" x2="2400.38" y2="1083.6"/><line class="cls-21" x1="2464.87" y1="1123.18" x2="2532.33" y2="1123.18"/><line class="cls-21" x1="2380.58" y1="1181.49" x2="2309.9" y2="1181.49"/><line class="cls-21" x1="2261.06" y1="1114.02" x2="2298.53" y2="1114.02"/><circle class="cls-22" cx="2386.45" cy="1065.73" r="22.34" transform="translate(-172.68 1870.31) rotate(-48.41)"/><polyline class="cls-23" points="555.68 1181.46 555.68 1166.05 828.18 1166.05 828.18 1223.12 555.68 1223.12 555.68 1200.33"/><rect class="cls-24" x="576.91" y="1178.07" width="251.27" height="33.03"/><rect class="cls-25" x="542.7" y="1108.99" width="238.3" height="57.06"/><rect class="cls-26" x="561.27" y="1121" width="219.73" height="33.03"/><polyline class="cls-27" points="697.68 1051.92 555.68 1051.92 555.68 1108.99 808.13 1108.99 808.13 1051.92 727.76 1051.92"/><rect class="cls-28" x="733.69" y="1336.95" width="232.78" height="33.03" transform="translate(1522.15 2433.92) rotate(180)"/><line class="cls-29" x1="2496.04" y1="1093.09" x2="2532.33" y2="1093.09"/><line class="cls-29" x1="2514.19" y1="1074.95" x2="2514.19" y2="1111.24"/><line class="cls-30" x1="404.04" y1="1057.68" x2="439.41" y2="1057.68"/><line class="cls-30" x1="421.73" y1="1040" x2="421.73" y2="1075.37"/><line class="cls-31" x1="219.03" y1="505.94" x2="253.12" y2="540.03"/><line class="cls-31" x1="253.12" y1="505.94" x2="219.03" y2="540.03"/><circle class="cls-32" cx="772.51" cy="1217.92" r="17.58" transform="translate(-772.11 1405.9) rotate(-76.25)"/><circle class="cls-33" cx="794.96" cy="914.3" r="11.49" transform="translate(-442.88 1228.39) rotate(-77.98)"/><circle class="cls-33" cx="128.49" cy="919.06" r="11.49"/><line class="cls-31" x1="2003.59" y1="383.91" x2="2037.68" y2="418"/><line class="cls-31" x1="2037.68" y1="383.91" x2="2003.59" y2="418"/><circle class="cls-32" cx="2606.97" cy="822.74" r="17.58" transform="translate(3.78 1811.36) rotate(-45)"/><circle class="cls-33" cx="2618.14" cy="1044.12" r="11.49"/><circle class="cls-33" cx="2284.82" cy="1117.3" r="11.49" transform="translate(-298.86 1669.85) rotate(-45)"/><line class="cls-31" x1="1067.27" y1="4.78" x2="1101.36" y2="38.86"/><line class="cls-31" x1="1101.36" y1="4.78" x2="1067.27" y2="38.86"/><circle class="cls-32" cx="1604.36" cy="452.8" r="17.58" transform="translate(-28.29 994.07) rotate(-45)"/><circle class="cls-33" cx="1974.77" cy="363.01" r="11.49" transform="translate(143.69 1229.68) rotate(-45)"/><circle class="cls-33" cx="817.94" cy="535.63" r="11.49" transform="translate(-317.2 462.24) rotate(-45)"/><polygon class="cls-16" points="1066.73 400.95 885.73 816.04 885.73 634.46 987.55 400.95 1066.73 400.95"/><polygon class="cls-16" points="1166.18 400.95 956.58 881.63 910.47 881.63 1120.08 400.95 1166.18 400.95"/><polygon class="cls-16" points="1282.28 400.95 1072.68 881.63 988.3 881.63 1197.89 400.95 1282.28 400.95"/><polygon class="cls-16" points="1270.29 881.63 1479.89 400.95 1452.32 400.95 1242.71 881.63 1270.29 881.63"/><polygon class="cls-16" points="1614.97 400.95 1405.38 881.63 1306.35 881.63 1515.95 400.95 1614.97 400.95"/><polygon class="cls-16" points="1724.31 400.95 1514.72 881.63 1441.89 881.63 1651.48 400.95 1724.31 400.95"/><polygon class="cls-16" points="1741.36 766.02 1690.95 881.63 1654.53 881.63 1741.36 682.51 1741.36 766.02"/><rect class="cls-34" x="1916.97" y="1199.84" width="262.16" height="27.11" rx="8.87"/><path class="cls-35" d="M2238.38,1438.67,2232,1436a6.51,6.51,0,0,1-3.51-8.51l140.89-339.25a6.51,6.51,0,0,1,8.51-3.51l6.35,2.63a6.51,6.51,0,0,1,3.52,8.51l-140.9,339.25A6.51,6.51,0,0,1,2238.38,1438.67Z" transform="translate(-178.02 -273.01)"/><path class="cls-35" d="M2104.23,783l4.87-4.86a6.51,6.51,0,0,1,9.2,0l259.75,259.75a6.51,6.51,0,0,1,0,9.2l-4.86,4.86a6.5,6.5,0,0,1-9.21,0L2104.23,792.21A6.52,6.52,0,0,1,2104.23,783Z" transform="translate(-178.02 -273.01)"/><circle class="cls-35" cx="2221.55" cy="1450.52" r="22.34" transform="translate(-553.01 1722.7) rotate(-45)"/><circle class="cls-35" cx="2088.04" cy="766.62" r="22.34" transform="translate(-93.44 1459.92) rotate(-45.91)"/><g class="cls-36"><polygon class="cls-37" points="1767.76 568.62 852.42 1234.85 2064.59 1234.85 1895.46 650.75 1767.76 568.62"/></g><path class="cls-6" d="M2095.58,883.08,2079.09,909,2072,920.13l-127.7-81.27,23.57-37a67.05,67.05,0,0,1,92.64-20.59l14.49,9.21A67.12,67.12,0,0,1,2095.58,883.08Z" transform="translate(-178.02 -273.01)"/><path class="cls-34" d="M2096.28,887l-20.41,30.9L1963.28,847.8l25.4-39.92a72.11,72.11,0,0,1,49.85-32.62,72.18,72.18,0,0,1,21.58,9.23l15.6,9.93C2109.39,815.87,2117.71,853.31,2096.28,887Z" transform="translate(-178.02 -273.01)"/><path class="cls-15" d="M2083,902.86l-3.9,6.13L2072,920.13l-127.7-81.27,23.57-37a67.05,67.05,0,0,1,92.64-20.59l14.49,9.21a67.12,67.12,0,0,1,20.58,92.64" transform="translate(-178.02 -273.01)"/><path class="cls-6" d="M2136.53,1472.85s-17.16,12,0,27.11H2099.6l-4.62-15.58,6.44-10.41,16.65-1.12Z" transform="translate(-178.02 -273.01)"/><path class="cls-15" d="M2300.7,1472.85h42.89a13.56,13.56,0,0,1,13.55,13.56h0a13.55,13.55,0,0,1-13.55,13.55H2108.54a13.56,13.56,0,0,1-13.56-13.55h0a13.56,13.56,0,0,1,13.56-13.56h162.9" transform="translate(-178.02 -273.01)"/><line class="cls-38" x1="1864.33" y1="534.51" x2="1899.67" y2="534.51"/><line class="cls-38" x1="1882" y1="516.84" x2="1882" y2="552.18"/></svg>